<svg height="496pt" viewBox="-1 0 495 496" width="496pt" xmlns="http://www.w3.org/2000/svg"><path d="m352.5 480h-336v-464h88v32h-64c-4.425781 0-8 3.585938-8 8v384c0 4.414062 3.574219 8 8 8h224c2.128906 0 4.160156-.839844 5.65625-2.34375l64-64c1.503906-1.496094 2.34375-3.535156 2.34375-5.65625v-88h-16v80h-56c-4.425781 0-8 3.585938-8 8v8h-112v16h112v32h-208v-368h56v8c0 4.414062 3.574219 8 8 8h144c4.425781 0 8-3.585938 8-8v-8h56v96h16v-104c0-4.414062-3.574219-8-8-8h-64v-32h88v112h16v-120c0-4.414062-3.574219-8-8-8h-352c-4.425781 0-8 3.585938-8 8v480c0 4.414062 3.574219 8 8 8h352c4.425781 0 8-3.585938 8-8v-232h-16zm-43.3125-96-36.6875 36.6875v-36.6875zm-60.6875-320h-128v-48h128zm0 0"/><path d="m256.5 200v-96c0-4.414062-3.574219-8-8-8h-128c-4.425781 0-8 3.585938-8 8v96c0 4.414062 3.574219 8 8 8h128c4.425781 0 8-3.585938 8-8zm-80-88h16v32h-16zm64 80h-112v-80h32v40c0 4.414062 3.574219 8 8 8h32c4.425781 0 8-3.585938 8-8v-40h32zm0 0"/><path d="m128.5 248c0-4.414062-3.574219-8-8-8h-32c-4.425781 0-8 3.585938-8 8v32c0 4.414062 3.574219 8 8 8h32c4.425781 0 8-3.585938 8-8zm-16 24h-16v-16h16zm0 0"/><path d="m128.5 312c0-4.414062-3.574219-8-8-8h-32c-4.425781 0-8 3.585938-8 8v32c0 4.414062 3.574219 8 8 8h32c4.425781 0 8-3.585938 8-8zm-16 24h-16v-16h16zm0 0"/><path d="m120.5 368h-32c-4.425781 0-8 3.585938-8 8v32c0 4.414062 3.574219 8 8 8h32c4.425781 0 8-3.585938 8-8v-32c0-4.414062-3.574219-8-8-8zm-8 32h-16v-16h16zm0 0"/><path d="m144.5 256h80v16h-80zm0 0"/><path d="m144.5 320h40v16h-40zm0 0"/><path d="m482.84375 122.34375-14.34375 14.34375-8.6875-8.6875 18.34375-18.34375c3.128906-3.128906 3.128906-8.183594 0-11.3125l-24-24c-3.128906-3.128906-8.183594-3.128906-11.3125 0l-224 224c-.609375.609375-1.121094 1.3125-1.503906 2.082031l-24 48c-1.535156 3.078125-.9375 6.796875 1.503906 9.230469 1.535156 1.535156 3.585938 2.34375 5.65625 2.34375 1.214844 0 2.441406-.28125 3.574219-.839844l48-24c.769531-.382812 1.472656-.886718 2.082031-1.503906l194.34375-194.34375 8.6875 8.6875-30.34375 30.34375 11.3125 11.3125 56-56zm-34.34375-31.03125 12.6875 12.6875-36.6875 36.6875-12.6875-12.6875zm-204.742188 230.113281-25.371093 12.6875 12.6875-25.378906 169.425781-169.421875 12.6875 12.6875zm0 0"/></svg>