<svg id="Layer_3" enable-background="new 0 0 64 64" height="512" viewBox="0 0 64 64" width="512" xmlns="http://www.w3.org/2000/svg"><g><path d="m21 24h2v4h-2z"/><path d="m16.5 25c.827 0 1.5-.673 1.5-1.5s-.673-1.5-1.5-1.5-1.5.673-1.5 1.5.673 1.5 1.5 1.5z"/><path d="m27.5 25c.827 0 1.5-.673 1.5-1.5s-.673-1.5-1.5-1.5-1.5.673-1.5 1.5.673 1.5 1.5 1.5z"/><path d="m22 37c3.86 0 7-3.141 7-7h-2c0 2.757-2.243 5-5 5s-5-2.243-5-5h-2c0 3.859 3.14 7 7 7z"/><path d="m62.706 38.292-6.998-6.998c-.181-.182-.431-.294-.708-.294h-17c-.552 0-1 .447-1 1v7.415l-5.885-1.81c2.277-1.96 3.921-4.632 4.571-7.673 2.43-.34 4.314-2.41 4.314-4.932 0-2.414-1.721-4.434-4-4.899v-5.101c0-7.72-6.28-14-14-14s-14 6.28-14 14v5.101c-2.279.465-4 2.485-4 4.899 0 2.522 1.884 4.592 4.314 4.931.651 3.041 2.294 5.714 4.571 7.673l-6.944 2.136c-2.955.91-4.941 3.6-4.941 6.692v15.568c0 .553.448 1 1 1h36 24c.552 0 1-.447 1-1v-23c0-.277-.112-.527-.294-.708zm-6.706-3.878 3.586 3.586h-3.586zm-19 26.586h-1v-12h-2v12h-11v-8.735l2.674-4.68.431.862c.166.332.502.545.873.553h.021c.363 0 .698-.196.874-.515l4.643-8.357 4.484 1.379zm-15-20c.126 0 .247-.016.372-.019l2.227 4.454-2.599 4.549-2.6-4.549 2.227-4.454c.126.003.247.019.373.019zm8.563-1.473-3.517 6.33-.18-.359.001-.002-.003-.002-2.365-4.73c1.639-.297 3.176-.881 4.565-1.697zm-20.563-24.527c0-.075.01-.148.011-.222l2.381-.595c6.278-1.568 12.938-1.568 19.216 0l2.381.595c.001.074.011.147.011.222v.382l-3.077 1.538-2.761-.921c-3.982-1.326-8.341-1.327-12.325.001l-2.761.92-3.076-1.538zm28 10c0 1.317-.859 2.427-2.042 2.829.016-.276.042-.549.042-.829v-4.816c1.161.414 2 1.514 2 2.816zm-16-22c5.816 0 10.676 4.161 11.768 9.662l-1.674-.418c-6.596-1.65-13.591-1.65-20.187 0l-1.674.418c1.091-5.501 5.951-9.662 11.767-9.662zm-16 22c0-1.302.839-2.402 2-2.816v4.816c0 .28.026.553.042.829-1.183-.402-2.042-1.512-2.042-2.829zm4 2v-9.382l2.553 1.276c.237.119.511.14.764.054l3.153-1.051c3.574-1.191 7.487-1.19 11.06-.001l3.154 1.052c.103.035.21.052.316.052.154 0 .307-.035.447-.105l2.553-1.277v9.382c0 6.617-5.383 12-12 12s-12-5.383-12-12zm9.5 13.764-2.365 4.73-.003.002.001.002-.18.359-3.517-6.33 1.499-.461c1.389.817 2.926 1.401 4.565 1.698zm-16.5 5.668c0-2.209 1.418-4.13 3.529-4.779l4.954-1.524 4.643 8.357c.176.318.511.514.874.514h.021c.371-.008.707-.221.873-.553l.431-.862 2.675 4.68v8.735h-11v-12h-2v12h-5zm58 14.568h-22v-28h15v6c0 .553.448 1 1 1h6z"/><path d="m41 57h10v2h-10z"/><path d="m41 53h10v2h-10z"/><path d="m41 49h10v2h-10z"/><path d="m41 45h10v2h-10z"/><path d="m53.168 46.555 2 3c.186.279.499.445.832.445.03 0 .061-.001.091-.004.366-.034.683-.265.828-.603l3-7-1.838-.787-2.273 5.303-.976-1.464z"/><path d="m55.808 55.909-.976-1.464-1.664 1.109 2 3c.186.28.499.446.832.446.03 0 .061-.001.091-.004.366-.034.683-.265.828-.603l3-7-1.838-.787z"/></g></svg>