<?xml version="1.0" encoding="UTF-8"?>
<svg xmlns="http://www.w3.org/2000/svg" id="Layer_3" data-name="Layer 3" viewBox="0 0 64 64" width="512" height="512"><path d="M25,26H20.97V21a6,6,0,0,0-2.691-5,6,6,0,0,0,2.691-5V6a5,5,0,0,0,2-4,1,1,0,0,0-1-1h-12a1,1,0,0,0-1,1v9a6,6,0,0,0,2.69,5,6,6,0,0,0-2.69,5V34a1,1,0,0,0,.051.316l1.949,5.846V62a1,1,0,0,0,1,1h8a1,1,0,0,0,1-1V60a3.006,3.006,0,0,0-2-2.829V40.162l1.948-5.846a.993.993,0,0,0,.052-.306L20.99,32H25a3,3,0,0,0,0-6ZM18.97,10H15.414L14.143,8.728A4.945,4.945,0,0,0,14.869,7h3.1a5,5,0,0,0,1-.1Zm-.142,2A4,4,0,0,1,16,14.849V12ZM10.97,3H20.8A3.007,3.007,0,0,1,17.97,5h-4a1,1,0,0,0-1,1,3.006,3.006,0,0,1-2,2.829Zm0,7.9a4.946,4.946,0,0,0,1.765-.75L14,11.414v3.453A4,4,0,0,1,10.97,11ZM11.357,35h7.226l-1.562,4.684A1,1,0,0,0,16.97,40V57h-4V40a1,1,0,0,0-.052-.316ZM18.97,61h-6V59h5a1,1,0,0,1,1,1Zm.01-28H10.97V21a4,4,0,1,1,8,0v5H18l-.017-4.012a3.007,3.007,0,0,0-3-2.988,3,3,0,0,0-3,3.01l.016,6a4.008,4.008,0,0,0,4,3.989h3ZM13.975,22.005a1,1,0,0,1,1-1,1,1,0,0,1,1,1l.012,3H13.983ZM25,30H15.991a2,2,0,0,1-2-2l0-1H16v0a1,1,0,0,0,1,1h8a1,1,0,0,1,0,2Z"/><path d="M55,11V7A6,6,0,0,0,43,7v4a6,6,0,0,0,2.69,5,6.041,6.041,0,0,0-1.878,2H32a1,1,0,0,0-1,1V31a1,1,0,0,0,1,1H42.98L43,34.01a.993.993,0,0,0,.052.306L45,40.162V57.171A3.006,3.006,0,0,0,43,60v2a1,1,0,0,0,1,1h8a1,1,0,0,0,1-1V40.162l1.948-5.846A1,1,0,0,0,55,34V21a6,6,0,0,0-2.69-5A6,6,0,0,0,55,11ZM49.1,8a4.9,4.9,0,0,0,.382,1.1l-.9.9H45V8ZM48,12v2.858A4,4,0,0,1,45.142,12Zm2-.586.688-.688A4.954,4.954,0,0,0,52.9,11.863a4,4,0,0,1-2.9,3ZM49,3a4,4,0,0,1,4,4V9.816A3,3,0,0,1,51,7a1,1,0,0,0-1-1H45.142A4,4,0,0,1,49,3ZM37,20h2v2H37Zm-4,0h2v3a1,1,0,0,0,1,1h4a1,1,0,0,0,1-1V20h2.09A6,6,0,0,0,43,21v5H39a3,3,0,0,0-3,3,2.966,2.966,0,0,0,.184,1H33Zm5,9a1,1,0,0,1,1-1H46.97a1,1,0,0,0,1-1v0h2.01l0,1a2,2,0,0,1-2,2H39A1,1,0,0,1,38,29Zm11.986-4H47.978l.013-3a1,1,0,0,1,1-1,1,1,0,0,1,1,1ZM51,40V57H47V40a1,1,0,0,0-.052-.316L45.387,35h7.226l-1.561,4.684A1,1,0,0,0,51,40ZM45,61V60a1,1,0,0,1,1-1h5v2Zm8-40V33H44.99l-.01-1h3a4.008,4.008,0,0,0,4-3.989l.016-6a3,3,0,0,0-6-.022L45.974,26H45V21a4,4,0,0,1,8,0Z"/></svg>
