<svg id="Layer_3" height="512" viewBox="0 0 64 64" width="512" xmlns="http://www.w3.org/2000/svg" data-name="Layer 3"><path d="m31.707 26.707 4-4a1 1 0 0 0 .293-.707v-15.993a1 1 0 0 0 -1-1.007h-18a1 1 0 0 0 -.707.293l-4 4a1 1 0 0 0 -.293.707v16a1 1 0 0 0 1 1h18a1 1 0 0 0 .707-.293zm2.293-5.121-2 2v-13.172l2-2zm-3.414-12.586h-3.172l2-2h3.172zm-10.586 2h4v5h-4zm1.414-2 2-2h3.172l-2 2zm-4-2h3.172l-2 2h-3.172zm-3.414 4h4v6a1 1 0 0 0 1 1h6a1 1 0 0 0 1-1v-6h4v14h-16z"/><path d="m12 29h-6a1 1 0 0 0 -1 1v6a1 1 0 0 0 1 1h6a1 1 0 0 0 1-1v-6a1 1 0 0 0 -1-1zm-1 6h-4v-4h4z"/><path d="m12 39h-6a1 1 0 0 0 -1 1v6a1 1 0 0 0 1 1h6a1 1 0 0 0 1-1v-6a1 1 0 0 0 -1-1zm-1 6h-4v-4h4z"/><path d="m12 49h-6a1 1 0 0 0 -1 1v6a1 1 0 0 0 1 1h6a1 1 0 0 0 1-1v-6a1 1 0 0 0 -1-1zm-1 6h-4v-4h4z"/><path d="m15 30h17v2h-17z"/><path d="m15 34h17v2h-17z"/><path d="m15 40h17v2h-17z"/><path d="m15 44h8v2h-8z"/><path d="m15 50h8v2h-8z"/><path d="m15 54h8v2h-8z"/><path d="m62 45h-8v-15a1 1 0 0 0 -1-1h-6v-27a1 1 0 0 0 -1-1h-44a1 1 0 0 0 -1 1v58a1 1 0 0 0 1 1h23v1a1 1 0 0 0 1 1h36a1 1 0 0 0 1-1v-16a1 1 0 0 0 -1-1zm-7 2v6.765l-1.293-1.293a1 1 0 0 0 -1.414 0l-1.293 1.293v-6.765zm-8.707-6.114a1 1 0 0 0 1.707-.707v-9.179h4v14h-16v-14h4v9.179a1 1 0 0 0 1.707.707l2.293-2.293zm-9.293 6.114v6.765l-1.293-1.293a1 1 0 0 0 -1.414 0l-1.293 1.293v-6.765zm9-9.235-1.293-1.293a1 1 0 0 0 -1.414 0l-1.293 1.293v-6.765h4zm-21 8.235v13h-22v-56h42v26h-10a1 1 0 0 0 -1 1v15h-8a1 1 0 0 0 -1 1zm18 15h-16v-14h4v9.179a1 1 0 0 0 1.707.707l2.293-2.293 2.293 2.293a1 1 0 0 0 1.707-.707v-9.179h4zm18 0h-16v-14h4v9.179a1 1 0 0 0 1.707.707l2.293-2.293 2.293 2.293a1 1 0 0 0 1.707-.707v-9.179h4z"/></svg>