<?xml version="1.0" encoding="UTF-8"?>
<svg xmlns="http://www.w3.org/2000/svg" id="Layer_3" data-name="Layer 3" viewBox="0 0 64 64" width="512" height="512"><path d="M31.364,32.95a6.657,6.657,0,1,0-9.414,9.414L35.636,56.05a6.657,6.657,0,1,0,9.414-9.414ZM22,37.657a4.657,4.657,0,0,1,7.95-3.293L36.086,40.5,29.5,47.086,23.364,40.95A4.627,4.627,0,0,1,22,37.657ZM40.343,56a4.625,4.625,0,0,1-3.293-1.364L30.914,48.5,37.5,41.914l6.136,6.136A4.657,4.657,0,0,1,40.343,56Z"/><path d="M47,23a9,9,0,1,0,9,9A9.01,9.01,0,0,0,47,23Zm0,2a7.006,7.006,0,0,1,6.92,6H40.08A7.006,7.006,0,0,1,47,25Zm0,14a7.006,7.006,0,0,1-6.92-6H53.92A7.006,7.006,0,0,1,47,39Z"/><path d="M62.555,9.168l-12-8A1.006,1.006,0,0,0,50,1H2A1,1,0,0,0,1,2V54a1,1,0,0,0,.445.832l12,8A1.006,1.006,0,0,0,14,63H62a1,1,0,0,0,1-1V10A1,1,0,0,0,62.555,9.168ZM58.7,9H42.3l-9-6H49.7ZM14.3,9l-9-6H21.7l9,6Zm20,0-9-6H29.7l9,6Zm.7,2h6v6l-2.4-1.8a1,1,0,0,0-1.2,0L35,17ZM3,3.868l10,6.667v49.6L3,53.465ZM15,61V11H33v8a1,1,0,0,0,1.6.8L38,17.25l3.4,2.55a1,1,0,0,0,.6.2,1,1,0,0,0,1-1V11H61V61Z"/><path d="M10.6,48.2l-4-3A1,1,0,0,0,5,46v5a1,1,0,0,0,.4.8l4,3a1,1,0,0,0,.6.2,1,1,0,0,0,1-1V49A1,1,0,0,0,10.6,48.2ZM9,52,7,50.5V48l2,1.5Z"/></svg>
