<?xml version="1.0" encoding="UTF-8"?>
<svg xmlns="http://www.w3.org/2000/svg" id="Layer_3" data-name="Layer 3" viewBox="0 0 64 64" width="512" height="512"><path d="M62,55H60V30a1,1,0,0,0-1-1H53a1,1,0,0,0-1,1V55H50V46a1,1,0,0,0-1-1H43a1,1,0,0,0-1,1v9H40V50a1,1,0,0,0-1-1H33a1,1,0,0,0-1,1v5H28a1,1,0,0,0-1,1v6a1,1,0,0,0,1,1H62a1,1,0,0,0,1-1V56A1,1,0,0,0,62,55ZM54,31h4V55H54ZM44,47h4v8H44ZM34,51h4v4H34ZM61,61H29V57H61Z"/><path d="M29.97,50.242l.957-3.827a20.813,20.813,0,0,0,6.014-2.5l3.394,2.035a1,1,0,0,0,1.222-.15L45.8,41.557a1,1,0,0,0,.15-1.222l-2.035-3.394a20.813,20.813,0,0,0,2.5-6.014l3.827-.957A1,1,0,0,0,51,29V23a1,1,0,0,0-.758-.97l-3.827-.957a20.813,20.813,0,0,0-2.5-6.014l2.035-3.394a1,1,0,0,0-.15-1.222L41.557,6.2a1,1,0,0,0-1.222-.15L36.941,8.086a20.813,20.813,0,0,0-6.014-2.5L29.97,1.758A1,1,0,0,0,29,1H23a1,1,0,0,0-.97.758l-.957,3.827a20.813,20.813,0,0,0-6.014,2.5L11.665,6.051a1,1,0,0,0-1.222.15L6.2,10.443a1,1,0,0,0-.15,1.222l2.035,3.394a20.813,20.813,0,0,0-2.5,6.014l-3.827.957A1,1,0,0,0,1,23v6a1,1,0,0,0,.758.97l3.827.957a20.813,20.813,0,0,0,2.5,6.014L6.051,40.335a1,1,0,0,0,.15,1.222L10.443,45.8a1,1,0,0,0,1.222.15l3.394-2.035a20.813,20.813,0,0,0,6.014,2.5l.957,3.827A1,1,0,0,0,23,51h6A1,1,0,0,0,29.97,50.242ZM23.781,49l-.918-3.668A1,1,0,0,0,22.1,44.6,18.851,18.851,0,0,1,15.619,41.9a1,1,0,0,0-1.061-.02l-3.252,1.951L8.167,40.694l1.951-3.252a1,1,0,0,0-.02-1.061A18.851,18.851,0,0,1,7.4,29.9a1,1,0,0,0-.736-.765L3,28.219V23.781l3.668-.918A1,1,0,0,0,7.4,22.1,18.851,18.851,0,0,1,10.1,15.619a1,1,0,0,0,.02-1.061L8.167,11.306l3.139-3.139,3.252,1.951a1,1,0,0,0,1.061-.02A18.851,18.851,0,0,1,22.1,7.4a1,1,0,0,0,.765-.736L23.781,3h4.438l.918,3.668A1,1,0,0,0,29.9,7.4,18.851,18.851,0,0,1,36.381,10.1a.994.994,0,0,0,1.061.02l3.252-1.951,3.139,3.139-1.951,3.252a1,1,0,0,0,.02,1.061A18.851,18.851,0,0,1,44.6,22.1a1,1,0,0,0,.736.765L49,23.781v4.438l-3.668.918a1,1,0,0,0-.736.765A18.851,18.851,0,0,1,41.9,36.381a1,1,0,0,0-.02,1.061l1.951,3.252-3.139,3.139-3.252-1.951a1,1,0,0,0-1.061.02A18.851,18.851,0,0,1,29.9,44.6a1,1,0,0,0-.765.736L28.219,49Z"/><path d="M40,26A14,14,0,1,0,26,40,14.015,14.015,0,0,0,40,26ZM26,38A12,12,0,1,1,38,26,12.013,12.013,0,0,1,26,38Z"/><path d="M26,16A10,10,0,1,0,36,26,10.011,10.011,0,0,0,26,16Zm0,18a8,8,0,1,1,8-8A8.009,8.009,0,0,1,26,34Z"/><path d="M28,26a1.993,1.993,0,0,0-1-1.722V22H25v2.278A1.994,1.994,0,0,0,26,28a1.96,1.96,0,0,0,.511-.075l2.782,2.782,1.414-1.414-2.782-2.782A1.96,1.96,0,0,0,28,26Z"/><path d="M8.707,46.293a1,1,0,0,0-1.414,0l-6,6A1,1,0,0,0,2,54H4v8a1,1,0,0,0,1,1h6a1,1,0,0,0,1-1V54h2a1,1,0,0,0,.707-1.707ZM11,52a1,1,0,0,0-1,1v8H6V53a1,1,0,0,0-1-1H4.414L8,48.414,11.586,52Z"/><path d="M53,27h6a1,1,0,0,0,1-1V9h2a1,1,0,0,0,.707-1.707l-6-6a1,1,0,0,0-1.414,0l-6,6A1,1,0,0,0,50,9h2V26A1,1,0,0,0,53,27ZM56,3.414,59.586,7H59a1,1,0,0,0-1,1V25H54V8a1,1,0,0,0-1-1h-.586Z"/></svg>
