<svg id="Layer_3" height="512" viewBox="0 0 64 64" width="512" xmlns="http://www.w3.org/2000/svg" data-name="Layer 3"><path d="m58 3h-52a5.006 5.006 0 0 0 -5 5v40a5.006 5.006 0 0 0 5 5h18.8l-5.549 6.342a1 1 0 0 0 .749 1.658h24a1 1 0 0 0 .752-1.658l-5.552-6.342h18.8a5.006 5.006 0 0 0 5-5v-40a5.006 5.006 0 0 0 -5-5zm-16.2 56h-19.6l5.249-6h9.094zm19.2-11a3 3 0 0 1 -3 3h-52a3 3 0 0 1 -3-3v-40a3 3 0 0 1 3-3h52a3 3 0 0 1 3 3z"/><path d="m56 7h-48a3 3 0 0 0 -3 3v32a3 3 0 0 0 3 3h48a3 3 0 0 0 3-3v-32a3 3 0 0 0 -3-3zm-48 2h48a1 1 0 0 1 1 1v5h-50v-5a1 1 0 0 1 1-1zm48 34h-48a1 1 0 0 1 -1-1v-25h50v25a1 1 0 0 1 -1 1z"/><path d="m31 47h2v2h-2z"/><path d="m24 19h-14a1 1 0 0 0 -1 1v20a1 1 0 0 0 1 1h14a1 1 0 0 0 1-1v-20a1 1 0 0 0 -1-1zm-1 20h-12v-18h12z"/><path d="m54 23h-18a1 1 0 0 0 -1 1v12a1 1 0 0 0 1 1h18a1 1 0 0 0 1-1v-12a1 1 0 0 0 -1-1zm-9 6.733-6.085-4.733h12.17zm-3.758-.389-4.242 4.242v-7.541zm1.591 1.237 1.553 1.209a1 1 0 0 0 1.228 0l1.553-1.209 4.419 4.419h-13.172zm5.925-1.237 4.242-3.299v7.541z"/><path d="m13 23h8v2h-8z"/><path d="m13 27h8v2h-8z"/><path d="m13 31h8v2h-8z"/><path d="m13 35h8v2h-8z"/><path d="m30.707 26.293-1.414 1.414 1.293 1.293h-4.586v2h4.586l-1.293 1.293 1.414 1.414 3-3a1 1 0 0 0 0-1.414z"/><path d="m45 11h2v2h-2z"/><path d="m49 11h2v2h-2z"/><path d="m53 11h2v2h-2z"/></svg>