<svg id="Layer_3" enable-background="new 0 0 64 64" height="512" viewBox="0 0 64 64" width="512" xmlns="http://www.w3.org/2000/svg"><g><path d="m15 5h6v2h-6z"/><path d="m18 53c-1.654 0-3 1.346-3 3s1.346 3 3 3 3-1.346 3-3-1.346-3-3-3zm0 4c-.551 0-1-.448-1-1s.449-1 1-1 1 .448 1 1-.449 1-1 1z"/><path d="m15.121 18.707c-1.1-1.101-2.564-1.707-4.121-1.707s-3.021.606-4.121 1.707l-.172.172c-1.085 1.085-1.707 2.587-1.707 4.121 0 1.519.466 2.975 1.349 4.209l3.837 5.372c.188.263.491.419.814.419s.626-.156.813-.419l3.837-5.372c.884-1.234 1.35-2.69 1.35-4.209 0-1.534-.622-3.036-1.707-4.121zm-1.098 7.34-3.023 4.232-3.024-4.232c-.639-.895-.976-1.947-.976-3.047 0-1.008.409-1.994 1.121-2.707l.172-.172c.723-.723 1.685-1.121 2.707-1.121s1.984.398 2.707 1.121l.172.172c.712.713 1.121 1.699 1.121 2.707 0 1.1-.337 2.152-.977 3.047z"/><path d="m61.293 46.879-.172-.172c-1.1-1.101-2.564-1.707-4.121-1.707s-3.021.606-4.121 1.707l-.172.172c-1.085 1.085-1.707 2.587-1.707 4.121 0 1.519.466 2.975 1.349 4.209l3.837 5.372c.188.263.491.419.814.419s.626-.156.813-.419l3.837-5.372c.884-1.234 1.35-2.69 1.35-4.209 0-1.534-.622-3.036-1.707-4.121zm-1.27 7.168-3.023 4.232-3.024-4.232c-.639-.895-.976-1.947-.976-3.047 0-1.008.409-1.994 1.121-2.707l.172-.172c.723-.723 1.685-1.121 2.707-1.121s1.984.398 2.707 1.121l.172.172c.712.713 1.121 1.699 1.121 2.707 0 1.1-.337 2.152-.977 3.047z"/><path d="m10 35h2v2h-2z"/><path d="m10 39h2v2h-2z"/><path d="m10 43h2v2h-2z"/><path d="m14 43h2v2h-2z"/><path d="m18 43h2v2h-2z"/><path d="m22 43h2v2h-2z"/><path d="m26 43h2v2h-2z"/><path d="m30 43h2v2h-2z"/><path d="m36 43h2v2h-2z"/><path d="m40 43h2v2h-2z"/><path d="m40 47h2v2h-2z"/><path d="m40 51h2v2h-2z"/><path d="m40 55h2v2h-2z"/><path d="m40 59h2v2h-2z"/><path d="m44 59h2v2h-2z"/><path d="m48 59h2v2h-2z"/><path d="m52 59h2v2h-2z"/><path d="m60 17c0-5.514-4.486-10-10-10-4.829 0-8.869 3.441-9.798 8h-5.202v-8c0-3.309-2.691-6-6-6h-22c-3.309 0-6 2.691-6 6v50c0 3.309 2.691 6 6 6h22c3.309 0 6-2.691 6-6v-18h11c.552 0 1-.447 1-1v-11.461c.948.298 1.955.461 3 .461 5.514 0 10-4.486 10-10zm-28 0h4v6.586l-1.293-1.293c-.391-.391-1.023-.391-1.414 0l-1.293 1.293zm-25-14h22c2.206 0 4 1.794 4 4v2h-30v-2c0-2.206 1.794-4 4-4zm22 58h-22c-2.206 0-4-1.794-4-4v-6h30v6c0 2.206-1.794 4-4 4zm4-12h-30v-38h30v4h-11c-.552 0-1 .447-1 1v22c0 .553.448 1 1 1h11zm-10-12v-2h22v2zm22-4h-22v-16h7v9c0 .404.244.77.617.924.374.156.803.069 1.09-.217l2.293-2.293 2.293 2.293c.191.191.447.293.707.293.129 0 .259-.024.383-.076.373-.154.617-.52.617-.924v-9h2c0 3.691 2.016 6.915 5 8.647zm5-8c-4.411 0-8-3.589-8-8s3.589-8 8-8 8 3.589 8 8-3.589 8-8 8z"/><path d="m48 18.586-1.293-1.293-1.414 1.414 2 2c.195.195.451.293.707.293s.512-.098.707-.293l6-6-1.414-1.414z"/></g></svg>